<?xml version="1.0" encoding="iso-8859-1"?>
<!-- Generator: Adobe Illustrator 18.0.0, SVG Export Plug-In . SVG Version: 6.00 Build 0)  -->
<!DOCTYPE svg PUBLIC "-//W3C//DTD SVG 1.1//EN" "http://www.w3.org/Graphics/SVG/1.1/DTD/svg11.dtd">
<svg version="1.1" id="Capa_1" xmlns="http://www.w3.org/2000/svg" xmlns:xlink="http://www.w3.org/1999/xlink" x="0px" y="0px"
	 viewBox="0 0 370 370" style="enable-background:new 0 0 370 370;" xml:space="preserve">
<path d="M361.095,104.875l-72.814-84.256c-6.967-8.059-17.069-12.682-27.719-12.682c-10.652,0-20.76,4.623-27.722,12.682
	l-54.912,63.539c-2.178,0.457-4.276,1.131-6.273,1.998c-0.316-19.932-16.619-36.051-36.625-36.051H83.849
	c-20.201,0-36.637,16.438-36.637,36.639v117.787H36.625c-14.295,0-27.372,8.4-33.314,21.395
	c-5.953,13.002-3.754,28.393,5.595,39.201l72.813,84.254c6.969,8.059,17.07,12.682,27.72,12.682c10.652,0,20.76-4.623,27.722-12.682
	l55.042-63.686c2.134-0.496,4.185-1.201,6.137-2.09c0.192,20.041,16.545,36.289,36.632,36.289h51.182
	c20.201,0,36.638-16.438,36.638-36.639V165.471h10.586c14.295,0,27.372-8.402,33.315-21.395
	C372.642,131.074,370.444,115.682,361.095,104.875z M110.57,326.403c-0.565,0.656-1.69,0.658-2.261,0l-72.816-84.26
	c-0.381-0.436-0.468-1.061-0.224-1.594c0.241-0.533,0.775-0.875,1.356-0.875h45.731V86.744c0-0.824,0.668-1.492,1.492-1.492h51.182
	c0.825,0,1.498,0.668,1.498,1.492v36.59c-1.154,1.131-2.264,2.309-3.308,3.549c-8.687,10.346-13.277,22.899-13.277,36.299
	c0,9.986,2.563,19.166,7.626,27.391c-2.402,2.668-4.383,5.754-5.833,9.158c-4.333,10.184-3.284,21.777,2.803,31.016
	c6.677,10.127,15.929,17.727,27.268,22.51v0.377c0,6.842,2.1,13.203,5.685,18.475L110.57,326.403z M218.729,225.07
	c-5.781,5.492-13.514,9.154-23.031,10.924v17.639c0,6.055-4.907,10.961-10.965,10.961c-6.053,0-10.961-4.906-10.961-10.961v-17.055
	c-13.89-1.881-24.286-7.9-30.89-17.92c-2.023-3.07-2.376-6.945-0.935-10.326c1.438-3.379,4.475-5.818,8.086-6.484l8.276-1.541
	c4.233-0.785,8.536,0.982,10.998,4.518c3.112,4.475,8.379,6.744,15.657,6.744c11.206,0,11.206-4.455,11.206-5.92
	c0-2.125-0.797-3.668-2.508-4.861c-1.745-1.217-4.927-2.299-9.455-3.221c-18.205-3.711-29.934-8.529-34.863-14.318
	c-5.007-5.869-7.436-12.434-7.436-20.066c0-8.287,2.735-15.744,8.132-22.172c5.226-6.219,13.21-10.256,23.73-12.018v-12.623
	c0-6.055,4.908-10.963,10.961-10.963c6.058,0,10.965,4.908,10.965,10.963v12.859c9.416,1.797,16.769,5.602,22.349,11.572
	c2.577,2.754,3.557,6.639,2.597,10.285c-0.963,3.646-3.729,6.541-7.328,7.664l-5.678,1.777c-4.118,1.293-8.61,0.041-11.477-3.186
	c-2.857-3.221-7.095-4.855-12.6-4.855c-4.434,0-9.72,1.057-9.72,6.084c0,1.424,0.547,2.709,1.575,3.717
	c1.082,1.053,4.235,2.172,9.373,3.318c11.856,2.594,20.522,4.961,25.709,7.023c5.261,2.096,9.69,5.688,13.176,10.678
	c3.483,4.98,5.254,10.955,5.254,17.746C228.928,210.563,225.497,218.643,218.729,225.07z M334.732,129.451
	c-0.241,0.535-0.775,0.875-1.357,0.875h-45.731v152.93c0,0.824-0.668,1.492-1.492,1.492H234.97c-0.825,0-1.498-0.668-1.498-1.492
	v-41.908c0.128-0.119,0.259-0.232,0.388-0.354c11.143-10.586,17.033-24.396,17.033-39.941c0-11.229-3.188-21.717-9.212-30.318
	c-1.192-1.709-2.456-3.324-3.788-4.846c1.761-2.803,3.116-5.895,3.989-9.203c2.903-11.021-0.009-22.572-7.791-30.887
	c-4.728-5.057-10.265-9.162-16.553-12.291c-0.483-5.605-2.386-10.811-5.335-15.264l47.227-54.646
	c0.283-0.328,0.697-0.516,1.132-0.516c0.434,0,0.844,0.189,1.129,0.518l72.816,84.258
	C334.889,128.293,334.976,128.918,334.732,129.451z"/>
<g>
</g>
<g>
</g>
<g>
</g>
<g>
</g>
<g>
</g>
<g>
</g>
<g>
</g>
<g>
</g>
<g>
</g>
<g>
</g>
<g>
</g>
<g>
</g>
<g>
</g>
<g>
</g>
<g>
</g>
</svg>
