<!-- By Sam Herbert (@sherb), for everyone. More @ http://goo.gl/7AJzbL -->
<svg width="126" height="20" viewBox="0 0 126 20" fill="none" xmlns="http://www.w3.org/2000/svg">
<path d="M36.0512 7.60084L36.3445 9.95573L36.3377 9.94651L30.2231 2.39056L29.3084 4.55177L31.3781 9.95573L23.1595 0L18.9092 4.16995L28.5269 15.8135L19.1495 9.08079L16.3288 3.96335L0 19.7442H50.9299L36.0512 7.60084Z" fill="#1F5CEF"/>
<path d="M88.5658 15.3708C90.2495 15.3708 91.6144 14.023 91.6144 12.3604C91.6144 10.6979 90.2495 9.3501 88.5658 9.3501C86.8821 9.3501 85.5172 10.6979 85.5172 12.3604C85.5172 14.023 86.8821 15.3708 88.5658 15.3708Z" fill="#1F5CEF"/>
<path d="M71.9113 5.14326L66.3789 19.7461H63.6473L60.3646 10.8786L57.0818 19.7461H54.3502L48.8172 5.14326V4.93114H53.0183L55.9106 13.1425L58.7805 4.93114H61.9486L64.8185 13.1425L67.7108 4.93114H71.9119L71.9113 5.14326Z" fill="#1F5CEF"/>
<path d="M77.2775 7.99988V10.8676H83.3398V13.809H77.2775V16.6767H83.8528V19.7455H73.4711V4.93114H83.8528V7.99988H77.2775Z" fill="#1F5CEF"/>
<path d="M102.089 9.5241C101.484 8.44503 100.454 7.76746 99.1107 7.76746C97.9463 7.76746 97.2296 8.12715 97.2296 8.88896C97.2296 9.62986 97.767 10.0953 100.543 10.8786C103.477 11.7038 105.537 12.7201 105.537 15.5134C105.537 18.6879 102.357 20 99.5808 20C96.5802 20 94.1623 18.667 93.1767 16.127L96.2446 14.4977C97.1624 16.1695 98.3492 16.8888 99.805 16.8888C101.081 16.8888 101.798 16.4658 101.798 15.6616C101.798 14.8149 101.081 14.2646 98.7296 13.5453C96.356 12.8259 93.4899 11.831 93.4899 8.86805C93.4899 5.92659 96.3112 4.67782 99.2446 4.67782C102.401 4.67782 104.35 6.159 105.29 8.06382L102.089 9.5241Z" fill="#1F5CEF"/>
<path d="M120.48 19.6538V19.7227H115.844L110.704 13.3965V19.7455H106.897V4.93114H110.704V10.5607L115.809 4.93114H120.466V5.03689L114.017 11.8938L120.48 19.6538Z" fill="#1F5CEF"/>
<path d="M126 4.93114V19.7455H122.124V4.93114H126Z" fill="#1F5CEF"/>
</svg>
